{
    "asset" : {
        "generator" : "Khronos glTF Blender I/O v1.4.40",
        "version" : "2.0"
    },
    "scene" : 0,
    "scenes" : [
        {
            "name" : "Scene",
            "nodes" : [
                0,
                1,
                2,
                3,
                4,
                5,
                6,
                7,
                8
            ]
        }
    ],
    "nodes" : [
        {
            "mesh" : 0,
            "name" : "Torus.001",
            "rotation" : [
                0.0032084519043564796,
                0.0007167086587287486,
                0.29698672890663147,
                0.9548759460449219
            ],
            "translation" : [
                0,
                0.009184633381664753,
                -0.014047268778085709
            ]
        },
        {
            "mesh" : 1,
            "name" : "Sphere",
            "rotation" : [
                -0.7072683572769165,
                0,
                0,
                0.7069451808929443
            ],
            "scale" : [
                0.1875891387462616,
                0.1875891387462616,
                0.1875891387462616
            ],
            "translation" : [
                -1.195953130722046,
                0.005479427054524422,
                -0.011313953436911106
            ]
        },
        {
            "mesh" : 2,
            "name" : "Sphere.001",
            "rotation" : [
                -0.7072683572769165,
                0,
                0,
                0.7069451808929443
            ],
            "scale" : [
                0.1875891387462616,
                0.1875891387462616,
                0.1875891387462616
            ],
            "translation" : [
                1.2128016948699951,
                0.0049218544736504555,
                -0.011313698254525661
            ]
        },
        {
            "mesh" : 3,
            "name" : "Sphere.002",
            "rotation" : [
                -0.7072683572769165,
                0,
                0,
                0.7069451808929443
            ],
            "scale" : [
                0.1875891387462616,
                0.1875891387462616,
                0.1875891387462616
            ],
            "translation" : [
                0.0007302770391106606,
                -1.2041685581207275,
                -0.010761022567749023
            ]
        },
        {
            "mesh" : 4,
            "name" : "Sphere.003",
            "rotation" : [
                -0.7072683572769165,
                0,
                0,
                0.7069451808929443
            ],
            "scale" : [
                0.1875891387462616,
                0.1875891387462616,
                0.1875891387462616
            ],
            "translation" : [
                0.0007302770391106606,
                1.1933720111846924,
                -0.011856913566589355
            ]
        },
        {
            "mesh" : 5,
            "name" : "Sphere.004",
            "rotation" : [
                -0.7072683572769165,
                0,
                0,
                0.7069451808929443
            ],
            "scale" : [
                0.1875891387462616,
                0.1875891387462616,
                0.1875891387462616
            ],
            "translation" : [
                -0.8625656366348267,
                -0.8512611389160156,
                -0.010922372341156006
            ]
        },
        {
            "mesh" : 6,
            "name" : "Sphere.005",
            "rotation" : [
                -0.7072683572769165,
                0,
                0,
                0.7069451808929443
            ],
            "scale" : [
                0.1875891387462616,
                0.1875891387462616,
                0.1875891387462616
            ],
            "translation" : [
                0.9061564803123474,
                -0.8187997937202454,
                -0.010937154293060303
            ]
        },
        {
            "mesh" : 7,
            "name" : "Sphere.006",
            "rotation" : [
                -0.7072683572769165,
                0,
                0,
                0.7069451808929443
            ],
            "scale" : [
                0.1875891387462616,
                0.1875891387462616,
                0.1875891387462616
            ],
            "translation" : [
                -0.8625656366348267,
                0.8135623931884766,
                -0.011683344841003418
            ]
        },
        {
            "mesh" : 8,
            "name" : "Sphere.007",
            "rotation" : [
                -0.7072683572769165,
                0,
                0,
                0.7069451808929443
            ],
            "scale" : [
                0.1875891387462616,
                0.1875891387462616,
                0.1875891387462616
            ],
            "translation" : [
                0.9061564803123474,
                0.8258560299873352,
                -0.011688947677612305
            ]
        }
    ],
    "materials" : [
        {
            "doubleSided" : true,
            "name" : "None",
            "pbrMetallicRoughness" : {
                "baseColorFactor" : [
                    0.8000000715255737,
                    0.22268900275230408,
                    0.03259635344147682,
                    1
                ],
                "metallicFactor" : 0.699999988079071,
                "roughnessFactor" : 0.5
            }
        },
        {
            "doubleSided" : true,
            "name" : "Material.001",
            "pbrMetallicRoughness" : {
                "baseColorFactor" : [
                    0.03324593976140022,
                    0.17780347168445587,
                    0.8000000715255737,
                    1
                ],
                "metallicFactor" : 0,
                "roughnessFactor" : 0.5
            }
        },
        {
            "doubleSided" : true,
            "name" : "Material.002",
            "pbrMetallicRoughness" : {
                "baseColorFactor" : [
                    0.03324593976140022,
                    0.17780347168445587,
                    0.8000000715255737,
                    1
                ],
                "metallicFactor" : 0,
                "roughnessFactor" : 0.5
            }
        },
        {
            "doubleSided" : true,
            "name" : "Material.003",
            "pbrMetallicRoughness" : {
                "baseColorFactor" : [
                    0.03324593976140022,
                    0.17780347168445587,
                    0.8000000715255737,
                    1
                ],
                "metallicFactor" : 0,
                "roughnessFactor" : 0.5
            }
        },
        {
            "doubleSided" : true,
            "name" : "Material.004",
            "pbrMetallicRoughness" : {
                "baseColorFactor" : [
                    0.03324593976140022,
                    0.17780347168445587,
                    0.8000000715255737,
                    1
                ],
                "metallicFactor" : 0,
                "roughnessFactor" : 0.5
            }
        },
        {
            "doubleSided" : true,
            "name" : "Material.005",
            "pbrMetallicRoughness" : {
                "baseColorFactor" : [
                    0.03324593976140022,
                    0.17780347168445587,
                    0.8000000715255737,
                    1
                ],
                "metallicFactor" : 0,
                "roughnessFactor" : 0.5
            }
        },
        {
            "doubleSided" : true,
            "name" : "Material.006",
            "pbrMetallicRoughness" : {
                "baseColorFactor" : [
                    0.03324593976140022,
                    0.17780347168445587,
                    0.8000000715255737,
                    1
                ],
                "metallicFactor" : 0,
                "roughnessFactor" : 0.5
            }
        },
        {
            "doubleSided" : true,
            "name" : "Material.007",
            "pbrMetallicRoughness" : {
                "baseColorFactor" : [
                    0.03324593976140022,
                    0.17780347168445587,
                    0.8000000715255737,
                    1
                ],
                "metallicFactor" : 0,
                "roughnessFactor" : 0.5
            }
        },
        {
            "doubleSided" : true,
            "name" : "Material.008",
            "pbrMetallicRoughness" : {
                "baseColorFactor" : [
                    0.03324593976140022,
                    0.17780347168445587,
                    0.8000000715255737,
                    1
                ],
                "metallicFactor" : 0,
                "roughnessFactor" : 0.5
            }
        }
    ],
    "meshes" : [
        {
            "name" : "Torus.001",
            "primitives" : [
                {
                    "attributes" : {
                        "POSITION" : 0,
                        "NORMAL" : 1
                    },
                    "indices" : 2,
                    "material" : 0
                }
            ]
        },
        {
            "name" : "Sphere.001",
            "primitives" : [
                {
                    "attributes" : {
                        "POSITION" : 3,
                        "NORMAL" : 4,
                        "TEXCOORD_0" : 5
                    },
                    "indices" : 6,
                    "material" : 1
                }
            ]
        },
        {
            "name" : "Sphere.002",
            "primitives" : [
                {
                    "attributes" : {
                        "POSITION" : 7,
                        "NORMAL" : 8,
                        "TEXCOORD_0" : 9
                    },
                    "indices" : 6,
                    "material" : 2
                }
            ]
        },
        {
            "name" : "Sphere.003",
            "primitives" : [
                {
                    "attributes" : {
                        "POSITION" : 10,
                        "NORMAL" : 11,
                        "TEXCOORD_0" : 12
                    },
                    "indices" : 6,
                    "material" : 3
                }
            ]
        },
        {
            "name" : "Sphere.004",
            "primitives" : [
                {
                    "attributes" : {
                        "POSITION" : 13,
                        "NORMAL" : 14,
                        "TEXCOORD_0" : 15
                    },
                    "indices" : 6,
                    "material" : 4
                }
            ]
        },
        {
            "name" : "Sphere.005",
            "primitives" : [
                {
                    "attributes" : {
                        "POSITION" : 16,
                        "NORMAL" : 17,
                        "TEXCOORD_0" : 18
                    },
                    "indices" : 6,
                    "material" : 5
                }
            ]
        },
        {
            "name" : "Sphere.006",
            "primitives" : [
                {
                    "attributes" : {
                        "POSITION" : 19,
                        "NORMAL" : 20,
                        "TEXCOORD_0" : 21
                    },
                    "indices" : 6,
                    "material" : 6
                }
            ]
        },
        {
            "name" : "Sphere.007",
            "primitives" : [
                {
                    "attributes" : {
                        "POSITION" : 22,
                        "NORMAL" : 23,
                        "TEXCOORD_0" : 24
                    },
                    "indices" : 6,
                    "material" : 7
                }
            ]
        },
        {
            "name" : "Sphere.008",
            "primitives" : [
                {
                    "attributes" : {
                        "POSITION" : 25,
                        "NORMAL" : 26,
                        "TEXCOORD_0" : 27
                    },
                    "indices" : 6,
                    "material" : 8
                }
            ]
        }
    ],
    "accessors" : [
        {
            "bufferView" : 0,
            "componentType" : 5126,
            "count" : 2304,
            "max" : [
                1.3327889442443848,
                1.3327889442443848,
                0.12564599514007568
            ],
            "min" : [
                -1.3327889442443848,
                -1.3327889442443848,
                -0.12564599514007568
            ],
            "type" : "VEC3"
        },
        {
            "bufferView" : 1,
            "componentType" : 5126,
            "count" : 2304,
            "type" : "VEC3"
        },
        {
            "bufferView" : 2,
            "componentType" : 5123,
            "count" : 13824,
            "type" : "SCALAR"
        },
        {
            "bufferView" : 3,
            "componentType" : 5126,
            "count" : 559,
            "max" : [
                1.000000238418579,
                1,
                1.0000003576278687
            ],
            "min" : [
                -0.9999998211860657,
                -1,
                -1
            ],
            "type" : "VEC3"
        },
        {
            "bufferView" : 4,
            "componentType" : 5126,
            "count" : 559,
            "type" : "VEC3"
        },
        {
            "bufferView" : 5,
            "componentType" : 5126,
            "count" : 559,
            "type" : "VEC2"
        },
        {
            "bufferView" : 6,
            "componentType" : 5123,
            "count" : 2880,
            "type" : "SCALAR"
        },
        {
            "bufferView" : 7,
            "componentType" : 5126,
            "count" : 559,
            "max" : [
                1.000000238418579,
                1,
                1.0000003576278687
            ],
            "min" : [
                -0.9999998211860657,
                -1,
                -1
            ],
            "type" : "VEC3"
        },
        {
            "bufferView" : 8,
            "componentType" : 5126,
            "count" : 559,
            "type" : "VEC3"
        },
        {
            "bufferView" : 9,
            "componentType" : 5126,
            "count" : 559,
            "type" : "VEC2"
        },
        {
            "bufferView" : 10,
            "componentType" : 5126,
            "count" : 559,
            "max" : [
                1.000000238418579,
                1,
                1.0000003576278687
            ],
            "min" : [
                -0.9999998211860657,
                -1,
                -1
            ],
            "type" : "VEC3"
        },
        {
            "bufferView" : 11,
            "componentType" : 5126,
            "count" : 559,
            "type" : "VEC3"
        },
        {
            "bufferView" : 12,
            "componentType" : 5126,
            "count" : 559,
            "type" : "VEC2"
        },
        {
            "bufferView" : 13,
            "componentType" : 5126,
            "count" : 559,
            "max" : [
                1.000000238418579,
                1,
                1.0000003576278687
            ],
            "min" : [
                -0.9999998211860657,
                -1,
                -1
            ],
            "type" : "VEC3"
        },
        {
            "bufferView" : 14,
            "componentType" : 5126,
            "count" : 559,
            "type" : "VEC3"
        },
        {
            "bufferView" : 15,
            "componentType" : 5126,
            "count" : 559,
            "type" : "VEC2"
        },
        {
            "bufferView" : 16,
            "componentType" : 5126,
            "count" : 559,
            "max" : [
                1.000000238418579,
                1,
                1.0000003576278687
            ],
            "min" : [
                -0.9999998211860657,
                -1,
                -1
            ],
            "type" : "VEC3"
        },
        {
            "bufferView" : 17,
            "componentType" : 5126,
            "count" : 559,
            "type" : "VEC3"
        },
        {
            "bufferView" : 18,
            "componentType" : 5126,
            "count" : 559,
            "type" : "VEC2"
        },
        {
            "bufferView" : 19,
            "componentType" : 5126,
            "count" : 559,
            "max" : [
                1.000000238418579,
                1,
                1.0000003576278687
            ],
            "min" : [
                -0.9999998211860657,
                -1,
                -1
            ],
            "type" : "VEC3"
        },
        {
            "bufferView" : 20,
            "componentType" : 5126,
            "count" : 559,
            "type" : "VEC3"
        },
        {
            "bufferView" : 21,
            "componentType" : 5126,
            "count" : 559,
            "type" : "VEC2"
        },
        {
            "bufferView" : 22,
            "componentType" : 5126,
            "count" : 559,
            "max" : [
                1.000000238418579,
                1,
                1.0000003576278687
            ],
            "min" : [
                -0.9999998211860657,
                -1,
                -1
            ],
            "type" : "VEC3"
        },
        {
            "bufferView" : 23,
            "componentType" : 5126,
            "count" : 559,
            "type" : "VEC3"
        },
        {
            "bufferView" : 24,
            "componentType" : 5126,
            "count" : 559,
            "type" : "VEC2"
        },
        {
            "bufferView" : 25,
            "componentType" : 5126,
            "count" : 559,
            "max" : [
                1.000000238418579,
                1,
                1.0000003576278687
            ],
            "min" : [
                -0.9999998211860657,
                -1,
                -1
            ],
            "type" : "VEC3"
        },
        {
            "bufferView" : 26,
            "componentType" : 5126,
            "count" : 559,
            "type" : "VEC3"
        },
        {
            "bufferView" : 27,
            "componentType" : 5126,
            "count" : 559,
            "type" : "VEC2"
        }
    ],
    "bufferViews" : [
        {
            "buffer" : 0,
            "byteLength" : 27648,
            "byteOffset" : 0
        },
        {
            "buffer" : 0,
            "byteLength" : 27648,
            "byteOffset" : 27648
        },
        {
            "buffer" : 0,
            "byteLength" : 27648,
            "byteOffset" : 55296
        },
        {
            "buffer" : 0,
            "byteLength" : 6708,
            "byteOffset" : 82944
        },
        {
            "buffer" : 0,
            "byteLength" : 6708,
            "byteOffset" : 89652
        },
        {
            "buffer" : 0,
            "byteLength" : 4472,
            "byteOffset" : 96360
        },
        {
            "buffer" : 0,
            "byteLength" : 5760,
            "byteOffset" : 100832
        },
        {
            "buffer" : 0,
            "byteLength" : 6708,
            "byteOffset" : 106592
        },
        {
            "buffer" : 0,
            "byteLength" : 6708,
            "byteOffset" : 113300
        },
        {
            "buffer" : 0,
            "byteLength" : 4472,
            "byteOffset" : 120008
        },
        {
            "buffer" : 0,
            "byteLength" : 6708,
            "byteOffset" : 124480
        },
        {
            "buffer" : 0,
            "byteLength" : 6708,
            "byteOffset" : 131188
        },
        {
            "buffer" : 0,
            "byteLength" : 4472,
            "byteOffset" : 137896
        },
        {
            "buffer" : 0,
            "byteLength" : 6708,
            "byteOffset" : 142368
        },
        {
            "buffer" : 0,
            "byteLength" : 6708,
            "byteOffset" : 149076
        },
        {
            "buffer" : 0,
            "byteLength" : 4472,
            "byteOffset" : 155784
        },
        {
            "buffer" : 0,
            "byteLength" : 6708,
            "byteOffset" : 160256
        },
        {
            "buffer" : 0,
            "byteLength" : 6708,
            "byteOffset" : 166964
        },
        {
            "buffer" : 0,
            "byteLength" : 4472,
            "byteOffset" : 173672
        },
        {
            "buffer" : 0,
            "byteLength" : 6708,
            "byteOffset" : 178144
        },
        {
            "buffer" : 0,
            "byteLength" : 6708,
            "byteOffset" : 184852
        },
        {
            "buffer" : 0,
            "byteLength" : 4472,
            "byteOffset" : 191560
        },
        {
            "buffer" : 0,
            "byteLength" : 6708,
            "byteOffset" : 196032
        },
        {
            "buffer" : 0,
            "byteLength" : 6708,
            "byteOffset" : 202740
        },
        {
            "buffer" : 0,
            "byteLength" : 4472,
            "byteOffset" : 209448
        },
        {
            "buffer" : 0,
            "byteLength" : 6708,
            "byteOffset" : 213920
        },
        {
            "buffer" : 0,
            "byteLength" : 6708,
            "byteOffset" : 220628
        },
        {
            "buffer" : 0,
            "byteLength" : 4472,
            "byteOffset" : 227336
        }
    ],
    "buffers" : [
        {
            "byteLength" : 231808,
            "uri" : "data:application/octet-stream;base64,"
        }
    ]
}
