{
    "asset" : {
        "generator" : "Khronos glTF Blender I/O v1.4.40",
        "version" : "2.0"
    },
    "scene" : 0,
    "scenes" : [
        {
            "name" : "Scene",
            "nodes" : [
                0
            ]
        }
    ],
    "nodes" : [
        {
            "mesh" : 0,
            "name" : "Cone.005",
            "rotation" : [
                0.6160034537315369,
                0.3471885919570923,
                0.3471885323524475,
                0.6160033345222473
            ],
            "translation" : [
                0.6253601312637329,
                1.0451616048812866,
                0.00790886115282774
            ]
        }
    ],
    "materials" : [
        {
            "doubleSided" : true,
            "name" : "None.005",
            "pbrMetallicRoughness" : {
                "baseColorFactor" : [
                    0.8000000715255737,
                    0.6985384225845337,
                    0.0016643580747768283,
                    1
                ],
                "metallicFactor" : 0,
                "roughnessFactor" : 0.5
            }
        }
    ],
    "meshes" : [
        {
            "name" : "Cone.005",
            "primitives" : [
                {
                    "attributes" : {
                        "POSITION" : 0,
                        "NORMAL" : 1
                    },
                    "indices" : 2,
                    "material" : 0
                }
            ]
        }
    ],
    "accessors" : [
        {
            "bufferView" : 0,
            "componentType" : 5126,
            "count" : 699,
            "max" : [
                1.5735529661178589,
                4.9888129234313965,
                0.32637399435043335
            ],
            "min" : [
                -1.2799999713897705,
                -4.940558910369873,
                -0.4022879898548126
            ],
            "type" : "VEC3"
        },
        {
            "bufferView" : 1,
            "componentType" : 5126,
            "count" : 699,
            "type" : "VEC3"
        },
        {
            "bufferView" : 2,
            "componentType" : 5123,
            "count" : 4158,
            "type" : "SCALAR"
        }
    ],
    "bufferViews" : [
        {
            "buffer" : 0,
            "byteLength" : 8388,
            "byteOffset" : 0
        },
        {
            "buffer" : 0,
            "byteLength" : 8388,
            "byteOffset" : 8388
        },
        {
            "buffer" : 0,
            "byteLength" : 8316,
            "byteOffset" : 16776
        }
    ],
    "buffers" : [
        {
            "byteLength" : 25092,
            "uri" : "magneticFieldLinesForGltf.bin"
        }
    ]
}
