{
    "asset" : {
        "generator" : "Khronos glTF Blender I/O v1.4.40",
        "version" : "2.0"
    },
    "scene" : 0,
    "scenes" : [
        {
            "name" : "Scene",
            "nodes" : [
                0,
                1,
                2,
                4
            ]
        }
    ],
    "nodes" : [
        {
            "name" : "Light",
            "rotation" : [
                0.16907575726509094,
                0.7558803558349609,
                -0.27217137813568115,
                0.570947527885437
            ],
            "translation" : [
                4.076245307922363,
                5.903861999511719,
                -1.0054539442062378
            ]
        },
        {
            "name" : "Camera",
            "rotation" : [
                0.483536034822464,
                0.33687159419059753,
                -0.20870360732078552,
                0.7804827094078064
            ],
            "translation" : [
                7.358891487121582,
                4.958309173583984,
                6.925790786743164
            ]
        },
        {
            "mesh" : 0,
            "name" : "Arrow",
            "scale" : [
                0.05000001937150955,
                0.20000004768371582,
                0.050000011920928955
            ],
            "translation" : [
                -4,
                0,
                -4
            ]
        },
        {
            "mesh" : 1,
            "name" : "Arrow.004",
            "rotation" : [
                -0.4999997913837433,
                -0.5000001788139343,
                -0.5000002384185791,
                0.4999997615814209
            ],
            "scale" : [
                0.5250001549720764,
                0.3500001132488251,
                0.5250001549720764
            ],
            "translation" : [
                1.25,
                0,
                0
            ]
        },
        {
            "children" : [
                3
            ],
            "mesh" : 2,
            "name" : "Sphere",
            "scale" : [
                0.3999999761581421,
                0.3999999761581421,
                0.3999999761581421
            ],
            "translation" : [
                -4,
                0.4000000059604645,
                -0.39999985694885254
            ]
        }
    ],
    "animations" : [
        {
            "channels" : [
                {
                    "sampler" : 0,
                    "target" : {
                        "node" : 4,
                        "path" : "translation"
                    }
                },
                {
                    "sampler" : 1,
                    "target" : {
                        "node" : 4,
                        "path" : "rotation"
                    }
                }
            ],
            "name" : "SphereAction",
            "samplers" : [
                {
                    "input" : 19,
                    "interpolation" : "LINEAR",
                    "output" : 20
                },
                {
                    "input" : 19,
                    "interpolation" : "LINEAR",
                    "output" : 21
                }
            ]
        }
    ],
    "materials" : [
        {
            "doubleSided" : true,
            "name" : "Blue",
            "pbrMetallicRoughness" : {
                "baseColorFactor" : [
                    0.026713581755757332,
                    0.029577482491731644,
                    0.8000000715255737,
                    1
                ],
                "metallicFactor" : 0,
                "roughnessFactor" : 0.5
            }
        },
        {
            "doubleSided" : true,
            "name" : "Red",
            "pbrMetallicRoughness" : {
                "baseColorFactor" : [
                    0.8000000715255737,
                    0.03263304382562637,
                    0.031221212819218636,
                    1
                ],
                "metallicFactor" : 0,
                "roughnessFactor" : 0.5
            }
        },
        {
            "doubleSided" : true,
            "name" : "Yellow",
            "pbrMetallicRoughness" : {
                "baseColorFactor" : [
                    0.8000000715255737,
                    0.6676810383796692,
                    0,
                    1
                ],
                "metallicFactor" : 0,
                "roughnessFactor" : 0.5
            }
        },
        {
            "doubleSided" : true,
            "name" : "Material.001",
            "pbrMetallicRoughness" : {
                "baseColorFactor" : [
                    0.800000011920929,
                    0.800000011920929,
                    0.800000011920929,
                    1
                ],
                "metallicFactor" : 0,
                "roughnessFactor" : 0.5
            }
        }
    ],
    "meshes" : [
        {
            "name" : "Cylinder",
            "primitives" : [
                {
                    "attributes" : {
                        "POSITION" : 0,
                        "NORMAL" : 1,
                        "TEXCOORD_0" : 2
                    },
                    "indices" : 3,
                    "material" : 0
                }
            ]
        },
        {
            "name" : "Cylinder.004",
            "primitives" : [
                {
                    "attributes" : {
                        "POSITION" : 4,
                        "NORMAL" : 5,
                        "TEXCOORD_0" : 6
                    },
                    "indices" : 7,
                    "material" : 1
                },
                {
                    "attributes" : {
                        "POSITION" : 8,
                        "NORMAL" : 9,
                        "TEXCOORD_0" : 10
                    },
                    "indices" : 3,
                    "material" : 2
                },
                {
                    "attributes" : {
                        "POSITION" : 11,
                        "NORMAL" : 12,
                        "TEXCOORD_0" : 13
                    },
                    "indices" : 14,
                    "material" : 0
                }
            ]
        },
        {
            "name" : "Sphere",
            "primitives" : [
                {
                    "attributes" : {
                        "POSITION" : 15,
                        "NORMAL" : 16,
                        "TEXCOORD_0" : 17
                    },
                    "indices" : 18,
                    "material" : 3
                }
            ]
        }
    ],
    "accessors" : [
        {
            "bufferView" : 0,
            "componentType" : 5126,
            "count" : 382,
            "max" : [
                1.9999998807907104,
                11,
                2.000000238418579
            ],
            "min" : [
                -2.000000238418579,
                -1,
                -1.9999996423721313
            ],
            "type" : "VEC3"
        },
        {
            "bufferView" : 1,
            "componentType" : 5126,
            "count" : 382,
            "type" : "VEC3"
        },
        {
            "bufferView" : 2,
            "componentType" : 5126,
            "count" : 382,
            "type" : "VEC2"
        },
        {
            "bufferView" : 3,
            "componentType" : 5123,
            "count" : 570,
            "type" : "SCALAR"
        },
        {
            "bufferView" : 4,
            "componentType" : 5126,
            "count" : 384,
            "max" : [
                -1.7142834663391113,
                -0.5714342594146729,
                1.9999996423721313
            ],
            "min" : [
                -9.71428394317627,
                -6.571434497833252,
                -1.9999998807907104
            ],
            "type" : "VEC3"
        },
        {
            "bufferView" : 5,
            "componentType" : 5126,
            "count" : 384,
            "type" : "VEC3"
        },
        {
            "bufferView" : 6,
            "componentType" : 5126,
            "count" : 384,
            "type" : "VEC2"
        },
        {
            "bufferView" : 7,
            "componentType" : 5123,
            "count" : 570,
            "type" : "SCALAR"
        },
        {
            "bufferView" : 8,
            "componentType" : 5126,
            "count" : 382,
            "max" : [
                1.9999998807907104,
                11,
                2.000000238418579
            ],
            "min" : [
                -2.000000238418579,
                -1,
                -1.9999996423721313
            ],
            "type" : "VEC3"
        },
        {
            "bufferView" : 9,
            "componentType" : 5126,
            "count" : 382,
            "type" : "VEC3"
        },
        {
            "bufferView" : 10,
            "componentType" : 5126,
            "count" : 382,
            "type" : "VEC2"
        },
        {
            "bufferView" : 11,
            "componentType" : 5126,
            "count" : 384,
            "max" : [
                2.0000061988830566,
                -0.5714244842529297,
                9.714284896850586
            ],
            "min" : [
                -1.9999936819076538,
                -6.57142448425293,
                1.714284062385559
            ],
            "type" : "VEC3"
        },
        {
            "bufferView" : 12,
            "componentType" : 5126,
            "count" : 384,
            "type" : "VEC3"
        },
        {
            "bufferView" : 13,
            "componentType" : 5126,
            "count" : 384,
            "type" : "VEC2"
        },
        {
            "bufferView" : 14,
            "componentType" : 5123,
            "count" : 570,
            "type" : "SCALAR"
        },
        {
            "bufferView" : 15,
            "componentType" : 5126,
            "count" : 1984,
            "max" : [
                1.000000238418579,
                1,
                1.0000003576278687
            ],
            "min" : [
                -0.9999998211860657,
                -1,
                -1
            ],
            "type" : "VEC3"
        },
        {
            "bufferView" : 16,
            "componentType" : 5126,
            "count" : 1984,
            "type" : "VEC3"
        },
        {
            "bufferView" : 17,
            "componentType" : 5126,
            "count" : 1984,
            "type" : "VEC2"
        },
        {
            "bufferView" : 18,
            "componentType" : 5123,
            "count" : 2880,
            "type" : "SCALAR"
        },
        {
            "bufferView" : 19,
            "componentType" : 5126,
            "count" : 250,
            "max" : [
                10.416666666666666
            ],
            "min" : [
                0.041666666666666664
            ],
            "type" : "SCALAR"
        },
        {
            "bufferView" : 20,
            "componentType" : 5126,
            "count" : 250,
            "type" : "VEC3"
        },
        {
            "bufferView" : 21,
            "componentType" : 5126,
            "count" : 250,
            "type" : "VEC4"
        }
    ],
    "bufferViews" : [
        {
            "buffer" : 0,
            "byteLength" : 4584,
            "byteOffset" : 0
        },
        {
            "buffer" : 0,
            "byteLength" : 4584,
            "byteOffset" : 4584
        },
        {
            "buffer" : 0,
            "byteLength" : 3056,
            "byteOffset" : 9168
        },
        {
            "buffer" : 0,
            "byteLength" : 1140,
            "byteOffset" : 12224
        },
        {
            "buffer" : 0,
            "byteLength" : 4608,
            "byteOffset" : 13364
        },
        {
            "buffer" : 0,
            "byteLength" : 4608,
            "byteOffset" : 17972
        },
        {
            "buffer" : 0,
            "byteLength" : 3072,
            "byteOffset" : 22580
        },
        {
            "buffer" : 0,
            "byteLength" : 1140,
            "byteOffset" : 25652
        },
        {
            "buffer" : 0,
            "byteLength" : 4584,
            "byteOffset" : 26792
        },
        {
            "buffer" : 0,
            "byteLength" : 4584,
            "byteOffset" : 31376
        },
        {
            "buffer" : 0,
            "byteLength" : 3056,
            "byteOffset" : 35960
        },
        {
            "buffer" : 0,
            "byteLength" : 4608,
            "byteOffset" : 39016
        },
        {
            "buffer" : 0,
            "byteLength" : 4608,
            "byteOffset" : 43624
        },
        {
            "buffer" : 0,
            "byteLength" : 3072,
            "byteOffset" : 48232
        },
        {
            "buffer" : 0,
            "byteLength" : 1140,
            "byteOffset" : 51304
        },
        {
            "buffer" : 0,
            "byteLength" : 23808,
            "byteOffset" : 52444
        },
        {
            "buffer" : 0,
            "byteLength" : 23808,
            "byteOffset" : 76252
        },
        {
            "buffer" : 0,
            "byteLength" : 15872,
            "byteOffset" : 100060
        },
        {
            "buffer" : 0,
            "byteLength" : 5760,
            "byteOffset" : 115932
        },
        {
            "buffer" : 0,
            "byteLength" : 1000,
            "byteOffset" : 121692
        },
        {
            "buffer" : 0,
            "byteLength" : 3000,
            "byteOffset" : 122692
        },
        {
            "buffer" : 0,
            "byteLength" : 4000,
            "byteOffset" : 125692
        }
    ],
    "buffers" : [
        {
            "byteLength" : 129692,
            "uri" : "data:application/octet-stream;base64,"
        }
    ]
}
