{
    "asset" : {
        "generator" : "Khronos glTF Blender I/O v1.4.40",
        "version" : "2.0"
    },
    "scene" : 0,
    "scenes" : [
        {
            "name" : "Scene",
            "nodes" : [
                0
            ]
        }
    ],
    "nodes" : [
        {
            "mesh" : 0,
            "name" : "Torus.001"
        }
    ],
    "animations" : [
        {
            "channels" : [
                {
                    "sampler" : 0,
                    "target" : {
                        "node" : 0,
                        "path" : "rotation"
                    }
                }
            ],
            "name" : "Torus.001Action",
            "samplers" : [
                {
                    "input" : 4,
                    "interpolation" : "LINEAR",
                    "output" : 5
                }
            ]
        }
    ],
    "materials" : [
        {
            "doubleSided" : true,
            "name" : "Magnetic Ring 2",
            "pbrMetallicRoughness" : {
                "baseColorFactor" : [
                    0.7299008965492249,
                    0.8000000715255737,
                    0.000492775347083807,
                    1
                ],
                "metallicFactor" : 0,
                "roughnessFactor" : 0.4000000059604645
            }
        }
    ],
    "meshes" : [
        {
            "name" : "Torus.001",
            "primitives" : [
                {
                    "attributes" : {
                        "POSITION" : 0,
                        "NORMAL" : 1,
                        "TEXCOORD_0" : 2
                    },
                    "indices" : 3,
                    "material" : 0
                }
            ]
        }
    ],
    "accessors" : [
        {
            "bufferView" : 0,
            "componentType" : 5126,
            "count" : 1068,
            "max" : [
                3.3240628242492676,
                0.20784610509872437,
                3.257838487625122
            ],
            "min" : [
                -3.3105950355529785,
                -0.20784610509872437,
                -3.2036666870117188
            ],
            "type" : "VEC3"
        },
        {
            "bufferView" : 1,
            "componentType" : 5126,
            "count" : 1068,
            "type" : "VEC3"
        },
        {
            "bufferView" : 2,
            "componentType" : 5126,
            "count" : 1068,
            "type" : "VEC2"
        },
        {
            "bufferView" : 3,
            "componentType" : 5123,
            "count" : 1584,
            "type" : "SCALAR"
        },
        {
            "bufferView" : 4,
            "componentType" : 5126,
            "count" : 180,
            "max" : [
                7.5
            ],
            "min" : [
                0.041666666666666664
            ],
            "type" : "SCALAR"
        },
        {
            "bufferView" : 5,
            "componentType" : 5126,
            "count" : 180,
            "type" : "VEC4"
        }
    ],
    "bufferViews" : [
        {
            "buffer" : 0,
            "byteLength" : 12816,
            "byteOffset" : 0
        },
        {
            "buffer" : 0,
            "byteLength" : 12816,
            "byteOffset" : 12816
        },
        {
            "buffer" : 0,
            "byteLength" : 8544,
            "byteOffset" : 25632
        },
        {
            "buffer" : 0,
            "byteLength" : 3168,
            "byteOffset" : 34176
        },
        {
            "buffer" : 0,
            "byteLength" : 720,
            "byteOffset" : 37344
        },
        {
            "buffer" : 0,
            "byteLength" : 2880,
            "byteOffset" : 38064
        }
    ],
    "buffers" : [
        {
            "byteLength" : 40944,
            "uri" : "data:application/octet-stream;base64,"
        }
    ]
}
